<svg width="22" height="22" viewBox="0 0 22 22" fill="none" xmlns="http://www.w3.org/2000/svg">
<g clip-path="url(#clip0_291_84)">
<path d="M21.0602 7.97065L14.5647 1.47516C12.5944 -0.490094 9.40518 -0.490094 7.43485 1.47516L0.939364 7.97065C0.33574 8.57105 -0.00259512 9.38797 -0.000231843 10.2394V19.7525C0.00178768 20.9943 1.00846 22.0001 2.25021 22.0011H19.7493C20.9911 22.0001 21.9977 20.9943 21.9997 19.7525V10.2394C22.0021 9.38797 21.6638 8.57105 21.0602 7.97065ZM19.2497 19.2511H14.6664V16.3343C14.6664 14.4014 13.0995 12.8344 11.1666 12.8344H10.8329C8.90004 12.8344 7.3331 14.4014 7.3331 16.3343V19.2511H2.74976V10.2394C2.75006 10.1178 2.7981 10.0013 2.88361 9.9149L9.3791 3.41941C10.2739 2.52433 11.7249 2.52416 12.62 3.41898C12.6201 3.41911 12.6203 3.41928 12.6204 3.41941L19.1159 9.9149C19.2014 10.0013 19.2495 10.1178 19.2498 10.2394V19.2511H19.2497Z" fill="#5C5C5C"/>
</g>
<defs>
<clipPath id="clip0_291_84">
<rect width="22" height="22" fill="white"/>
</clipPath>
</defs>
</svg>
