<svg width="22" height="22" viewBox="0 0 22 22" fill="none" xmlns="http://www.w3.org/2000/svg">
<g clip-path="url(#clip0_291_85)">
<path d="M15.8124 1.69653C14.8722 1.70563 13.9472 1.93481 13.1115 2.36572C12.2758 2.79662 11.5526 3.41728 10.9999 4.17795C10.4472 3.41728 9.72405 2.79662 8.88835 2.36572C8.05264 1.93481 7.12762 1.70563 6.18741 1.69653C4.48403 1.76456 2.87688 2.50428 1.71739 3.75396C0.557894 5.00364 -0.0596079 6.66159 -9.29125e-05 8.36528C-9.29125e-05 12.5379 4.28441 17.0049 7.88324 20.0179C8.75713 20.7528 9.86227 21.1556 11.004 21.1556C12.1458 21.1556 13.2509 20.7528 14.1248 20.0179C17.72 17.0049 22.0082 12.5379 22.0082 8.36528C22.0676 6.66021 21.449 5.00105 20.2877 3.75114C19.1265 2.50123 17.5172 1.76243 15.8124 1.69653ZM12.3538 17.9105C11.9747 18.2297 11.495 18.4048 10.9994 18.4048C10.5039 18.4048 10.0242 18.2297 9.64507 17.9105C5.26341 14.2365 2.74991 10.7578 2.74991 8.36528C2.69146 7.39106 3.01966 6.43311 3.66326 5.69942C4.30685 4.96572 5.21388 4.51551 6.18741 4.44653C7.16094 4.51551 8.06796 4.96572 8.71156 5.69942C9.35515 6.43311 9.68335 7.39106 9.62491 8.36528C9.62491 8.72996 9.76977 9.07969 10.0276 9.33755C10.2855 9.59542 10.6352 9.74028 10.9999 9.74028C11.3646 9.74028 11.7143 9.59542 11.9722 9.33755C12.23 9.07969 12.3749 8.72996 12.3749 8.36528C12.3165 7.39106 12.6447 6.43311 13.2883 5.69942C13.9318 4.96572 14.8389 4.51551 15.8124 4.44653C16.7859 4.51551 17.693 4.96572 18.3366 5.69942C18.9801 6.43311 19.3084 7.39106 19.2499 8.36528C19.2499 10.7578 16.7364 14.2365 12.3538 17.9105Z" fill="#5C5C5C"/>
</g>
<defs>
<clipPath id="clip0_291_85">
<rect width="22" height="22" fill="white"/>
</clipPath>
</defs>
</svg>
