<svg width="26" height="26" viewBox="0 0 26 26" fill="none" xmlns="http://www.w3.org/2000/svg">
<path d="M23.028 19.043H20.9684C20.8278 19.043 20.696 19.1045 20.6081 19.2129C20.403 19.462 20.1833 19.7022 19.9518 19.9307C19.0052 20.8783 17.884 21.6334 16.6501 22.1543C15.3717 22.6943 13.9977 22.9713 12.61 22.9688C11.2067 22.9688 9.84733 22.6934 8.56999 22.1543C7.33607 21.6334 6.21481 20.8783 5.26823 19.9307C4.31995 18.9863 3.5638 17.8671 3.04167 16.6348C2.49968 15.3575 2.22721 14.001 2.22721 12.5977C2.22721 11.1944 2.5026 9.83794 3.04167 8.56059C3.56315 7.32719 4.31315 6.21684 5.26823 5.26469C6.22331 4.31254 7.33366 3.56254 8.56999 3.04106C9.84733 2.502 11.2067 2.22661 12.61 2.22661C14.0133 2.22661 15.3727 2.49907 16.6501 3.04106C17.8864 3.56254 18.9967 4.31254 19.9518 5.26469C20.1833 5.49614 20.4001 5.73637 20.6081 5.98247C20.696 6.09086 20.8307 6.15239 20.9684 6.15239H23.028C23.2126 6.15239 23.3268 5.94731 23.2243 5.79204C20.9772 2.29985 17.0456 -0.0116744 12.5778 4.43516e-05C5.55827 0.0176225 -0.0696608 5.71587 0.000651722 12.7266C0.0709642 19.626 5.69011 25.1954 12.61 25.1954C17.0661 25.1954 20.9801 22.8868 23.2243 19.4034C23.3239 19.2481 23.2126 19.043 23.028 19.043ZM25.6325 12.4131L21.4753 9.13188C21.32 9.00883 21.0944 9.12016 21.0944 9.31645V11.543H11.8952C11.7663 11.543 11.6608 11.6485 11.6608 11.7774V13.418C11.6608 13.5469 11.7663 13.6524 11.8952 13.6524H21.0944V15.879C21.0944 16.0752 21.3229 16.1866 21.4753 16.0635L25.6325 12.7823C25.6605 12.7603 25.6832 12.7323 25.6987 12.7004C25.7143 12.6684 25.7224 12.6333 25.7224 12.5977C25.7224 12.5621 25.7143 12.527 25.6987 12.495C25.6832 12.4631 25.6605 12.4351 25.6325 12.4131Z" fill="#5C5C5C"/>
</svg>
