<svg width="22" height="22" viewBox="0 0 22 22" fill="none" xmlns="http://www.w3.org/2000/svg">
<g clip-path="url(#clip0_291_91)">
<path d="M19.25 22.0005H16.5V17.4172C16.5 16.931 16.3068 16.4647 15.963 16.1208C15.6192 15.777 15.1529 15.5839 14.6667 15.5839H7.33333C6.8471 15.5839 6.38079 15.777 6.03697 16.1208C5.69315 16.4647 5.5 16.931 5.5 17.4172V22.0005H2.75V17.4172C2.75146 16.2021 3.23481 15.0371 4.09403 14.1779C4.95326 13.3187 6.1182 12.8353 7.33333 12.8339H14.6667C15.8818 12.8353 17.0467 13.3187 17.906 14.1779C18.7652 15.0371 19.2485 16.2021 19.25 17.4172V22.0005Z" fill="#5C5C5C"/>
<path d="M11 11C9.91221 11 8.84884 10.6774 7.94437 10.0731C7.0399 9.46874 6.33495 8.60976 5.91867 7.60476C5.50238 6.59977 5.39346 5.4939 5.60568 4.42701C5.8179 3.36011 6.34173 2.3801 7.11092 1.61092C7.8801 0.841726 8.86011 0.317902 9.92701 0.105683C10.9939 -0.106535 12.0998 0.00238307 13.1048 0.418665C14.1098 0.834947 14.9687 1.5399 15.5731 2.44437C16.1774 3.34884 16.5 4.41221 16.5 5.5C16.4985 6.95825 15.9186 8.35635 14.8875 9.38748C13.8563 10.4186 12.4582 10.9985 11 11ZM11 2.75C10.4561 2.75 9.92442 2.91129 9.47218 3.21346C9.01995 3.51564 8.66747 3.94513 8.45933 4.44762C8.25119 4.95012 8.19673 5.50305 8.30284 6.0365C8.40895 6.56995 8.67086 7.05995 9.05546 7.44455C9.44005 7.82914 9.93006 8.09105 10.4635 8.19716C10.997 8.30327 11.5499 8.24881 12.0524 8.04067C12.5549 7.83253 12.9844 7.48006 13.2865 7.02782C13.5887 6.57559 13.75 6.0439 13.75 5.5C13.75 4.77066 13.4603 4.07118 12.9445 3.55546C12.4288 3.03973 11.7293 2.75 11 2.75Z" fill="#5C5C5C"/>
</g>
<defs>
<clipPath id="clip0_291_91">
<rect width="22" height="22" fill="white"/>
</clipPath>
</defs>
</svg>
